<mxfile host="Electron" agent="Mozilla/5.0 (Macintosh; Intel Mac OS X 10_15_7) AppleWebKit/537.36 (KHTML, like Gecko) draw.io/28.0.6 Chrome/138.0.7204.100 Electron/37.2.3 Safari/537.36" version="28.0.6">
  <diagram name="Page-1" id="G-ANUh1QTYR8kyE2fFiJ">
    <mxGraphModel dx="515" dy="217" grid="0" gridSize="10" guides="1" tooltips="1" connect="1" arrows="1" fold="1" page="1" pageScale="1" pageWidth="850" pageHeight="1100" math="0" shadow="0">
      <root>
        <mxCell id="0" />
        <mxCell id="1" parent="0" />
        <mxCell id="Jh3TjghR9VifW09uoMS7-11" value="" style="rounded=1;whiteSpace=wrap;html=1;fillColor=light-dark(#666666,#666666);strokeColor=none;shadow=1;shadowOpacity=50;shadowColor=light-dark(#000000,#000000);shadowOffsetY=2;shadowBlur=1;" vertex="1" parent="1">
          <mxGeometry x="404.5" y="418" width="165" height="161" as="geometry" />
        </mxCell>
        <mxCell id="Jh3TjghR9VifW09uoMS7-1" value="" style="html=1;verticalLabelPosition=bottom;align=center;labelBackgroundColor=#ffffff;verticalAlign=top;strokeWidth=2;strokeColor=none;shadow=1;dashed=0;shape=mxgraph.ios7.icons.message;shadowColor=light-dark(#000000,#000000);shadowOpacity=50;shadowOffsetY=2;shadowBlur=1;fillColor=light-dark(#1A1A1A,#1A1A1A);" vertex="1" parent="1">
          <mxGeometry x="414" y="432" width="146" height="138" as="geometry" />
        </mxCell>
        <mxCell id="Jh3TjghR9VifW09uoMS7-4" value="" style="verticalLabelPosition=bottom;sketch=0;html=1;fillColor=light-dark(#CCCCCC,#CCCCCC);strokeColor=none;verticalAlign=top;pointerEvents=1;align=center;shape=mxgraph.cisco_safe.people_places_things_icons.icon9;shadow=1;shadowColor=light-dark(#000000,#000000);shadowOpacity=50;shadowOffsetY=2;shadowBlur=1;" vertex="1" parent="1">
          <mxGeometry x="430" y="480" width="50" height="47.5" as="geometry" />
        </mxCell>
        <mxCell id="Jh3TjghR9VifW09uoMS7-5" value="" style="verticalLabelPosition=bottom;sketch=0;html=1;fillColor=light-dark(#CCCCCC,#CCCCCC);strokeColor=none;verticalAlign=top;pointerEvents=1;align=center;shape=mxgraph.cisco_safe.people_places_things_icons.icon9;direction=east;flipH=1;shadow=1;shadowColor=light-dark(#000000,#000000);shadowOpacity=50;shadowOffsetY=2;shadowBlur=1;" vertex="1" parent="1">
          <mxGeometry x="490" y="480" width="50" height="47.5" as="geometry" />
        </mxCell>
        <mxCell id="Jh3TjghR9VifW09uoMS7-3" value="" style="verticalLabelPosition=bottom;html=1;verticalAlign=top;align=center;strokeColor=none;fillColor=#FFFFFF;shape=mxgraph.azure.user;shadow=1;shadowColor=light-dark(#000000,#000000);shadowOpacity=50;shadowOffsetY=4;shadowBlur=1;shadowOffsetX=2;" vertex="1" parent="1">
          <mxGeometry x="455.63" y="480" width="58.75" height="60" as="geometry" />
        </mxCell>
        <mxCell id="Jh3TjghR9VifW09uoMS7-7" value="" style="shape=image;verticalLabelPosition=bottom;labelBackgroundColor=default;verticalAlign=top;aspect=fixed;imageAspect=0;image=data:image/png,iVBORw0KGgoAAAANSUhEUgAAAQAAAAEACAYAAABccqhmAAAAAXNSR0IArs4c6QAAAERlWElmTU0AKgAAAAgAAYdpAAQAAAABAAAAGgAAAAAAA6ABAAMAAAABAAEAAKACAAQAAAABAAABAKADAAQAAAABAAABAAAAAABn6hpJAAAfjklEQVR4Ae2dDcydZ1nH16ZpmmVZ6jLrsjTzWEsdzVLnnHXOOV7KGIMNgQEGUUASAwFBXQyBRMliRAgiCQLiJ1E+lCioUwjIGGUrtalz1GXOudSmea1lNM2ctTZNbcrw9yvPzc66vu0573nOOc/H/0r+7/Oc8z4f9/2/7+t/X/d1P+ecCy6IhYEwEAbCQBgIA2EgDISBMBAGwkAYCANhIAyEgTAQBsJAGAgDYSAMhIEwEAbCQBgIA2EgDISBMBAGwkAYCANhIAyEgTAQBsJAGAgDYSAMhIEwEAbCQBgIA2EgDISBMBAGwkAYCANhIAyEgTAQBsJAGAgDYSAMhIEwEAbCQBgIA/NgYMU8bpp7hoEwUD8D3/rWtzZx1avBZeAk2At2rVix4gTbWBgIA11jAKdfC94B/hV8E5xp/8sbHwJXdK3uqU8Y6DUDOPVt4BtgFPtvDnptrwlL5cNAVxjQmcH/jeL5Q8cYIbyjKxykHmGglwzgxFuAI/pyTBF4RS+JS6XDQBcYwIE/tRzPHzrnv9i/VC5WdoGQ1CEM9IUBHHdAXV80YX0v4fw7vEYEYEImc3oYmDEDW7nfhTXc81VeIwJQA5O5RBiYIQM/zL1W1XC/AdHEyghADUzmEmFghgwMarqXvr82AlATm7lMGJgRA3U+0HNxBGBGrZbbhIGaGLi4put4mUQANZKZS4WBWTCwps6bJAKok81cKwxMn4E6VgBKKS+KABQqsg0D7WCgjhWAUtNVEYBCRbZhoIcMRAB62OipcjsZYN3e0b9On72wzou1k9WUOgy0hwGf36/TZ1fVOZ9oD40paRhoCQOM+mb914EF8DJwEajNIgC1UZkLhYHJGfDxXK6ik28GN4Png2tBrct/XE9bGQH4NhH5GwbmxgBOv5qbrwXXg1vBAtgAFINp2kURgGnSm2uHgSUYwOkd5dcDR/kXAD/ld/oz+mxnZYkAZsV07tNvBnB4B1sf490CXggWgN/g6+g/N0sEMDfqc+OuM4DTO293VL8B6PRuB2DaoT23GM0iAKPxlKPCwHkZwOF1bEP7DcDQ/nnA0N75fSMtAtDIZkmh2sJAFdr7FVuG8yW0N4M/19B+VP4iAKMylePCQMUATu8Hcvz1nRuBTm/2/nLQmNCesoxkEYCRaMpBfWagCu0N4zeCW8BzgWvztT6Uw/VmbasjALOmPPdrBQM4vSG8CTwd3bV5R/krQZd85sIuVYa2iYWB5TOA05e1+QWuUtbmDe07axGAzjZtKnY+BqrQ3gSeI7tzeef0JvPaHtpThdEsAjAaTzmqIwzg9K7N++Eal+dKaO+yXS99oZeVprFjPWIApzeB57fpbgPlwzWKQO8tAtD7LtA9AnB4+7UJvKtAeQLPR3Ad/WNDDEQAhsjIbnsZwOldmzdhZ7ZepzfEH4DWrc1T5plZBGBmVOdGdTKAw+vYJvCcv/vYrWvz1wDD/diIDEQARiQqh82fAZzetXmfwDNTX57AM4PfisduKWfjLALQuCZJgYYZwOn9CK0JPJfoXJt3lDfUT2gPCZNaBGBSBnN+rQxUob0JvOG1eRN4vVmbr5XQ81wsAnAegvLv6TOA05udd1Q3cecofx3YCPrQP49SzyeA3w408/rO/IZUMhYGLsDpTdYNwDbg2rzzeuf3XbeTVPAQeAR8CewCp8AXgUnNmVoEYKZ09/dmVWivg/tZ+fLYrfsu33XZnqRyjvD7wQ5wH3gQPLZixQr/pxhudDsHWxMBmAPrfbllFdpfQX0N7YfX5rve745R34NgD3Bkd7sPhz/BtkkWAWhSa3ShLDi9YawjmqG9X4m1BawDXTbD+sPgUVDC+kdweEf+RlvXlbjR5HehcFVobwLPx27Lh2sM7U3sddUM3Y+AReAcXqd/GCyWsJ79VlgEoBXN1KxCVqH9gFJdB3R61+YHoMtr88ep32PAcF6HfwDsxeF9f1IzgjidD5j0QuOeHwEYl7GeHl+F9puofsnaO+K7Xt9VMzNvWL8XfAWYwDOs9726LQJQN6O53mQMVKG9a9PO4R3lHe19OKfLof1wWK/Tm603rFcMOmmJADrZrMurFE5/IWduANcDs/ZXA7P4XQ3tzcofBM7fDevvB4b1PpzTC4sA9KKZl64kTm+G3tDeJ/AM7x3lZ/5ACvechTnPNoTfBwzpHeUfAYdw+rnMwbn3XC0CMFf6Z39zHN42HwBHd0P7rWAjWA26aI7mi8CknaN8Cesd/XtvEYAedAGc/mKqqZPfCBzpTeA5v++imVAzW29Y/2WwC/gQTpPX5BWjuUQgEQCY76Lh9JdTr82gPHZrmK8QdM10HJ17L9gJSlh/sEVhvUnGCAAkxJbJAA5vCG8C71rwYmCI7+suirxr7/uB4XxZkzdb7/uxMRjoYucYo/rtPrQK7U3aLQBDe0f8y0DXzBHSsP5RYFjvSG+2/nG2sQkYiABMQN6sT8XhV3JPQ3vn8Ib2NwBD+4tA18ywfh/YDRzlzdYfwOkVg1hNDEQAaiJyWpcZCu3N1g8/dtu1tjMRtggM6x3lXZPfj8MfYxubEgNd60RTomm2l8Xp13LH4dDe/XXACKArZtLrEDCsN3F3L3DEP4zTzyUhxr17ZxGABjR5Fdqvpygm7pzL3wBM4HUttHdNXic3rHeUfwgY1rt0F5sDAxGAOZDuLXH6NWycv18HymO3ikCX2uQU9TFbXx611fHN1h9hG2sAA13qbA2g89xFwOkv5Qgz9X4H3jagAPjYbZdC+8PUx4TdTmBob4jf20dtqXujLQIwxeapQvsBt7gGOMo72g/AhaArdpyK+BDOA6A8amtYf6IrFexyPSIANbcuTq9zXwmcxzuf3wIuA13h2gTdAeD8vazJG9a7bBdrGQNd6ZRzpR2nN0OvoxvaL4CNwNC+K6ZzG9bvAo7yjvh+q61z/FiLGYgALKPxcHh5G4CtwNDe7RXAxF4XzPB9H9gDyqO2hvXHu1C51OEpBiIAT3Fxzj2c3iU5E3iG9jq9+4b2XUngGdY7yhvW7wA+hPM421iHGYgAnKNxcXofuzWBZ2h/IxgAH9Lpgh2lEjq8S3OO8i7Vma3PmjxEzNjMG81lIIkADLU0Dr+al8Nr8zq/IuD7bTfn64b1DwJ/rOJ+4EdmFYLYfBnQ+SMA82gDnN4R3QTeAjBrvxG4Xj+XBuG+ddohLvYQuA9sB4sgj9pCQlOM/mfeaAOYy2C85E0pmPNb57v+uotO4SjonPBrwM60p43hIvXSsU3YXQvKY7fr2XeO33YzSTcc1uv8hvUm9WJzZIB+dzG316fsazr8D4ArwQA44MxlavkMAaCgOsIbwJvAAJx5zO28Z9i4m2PfQ+e6l/1GG+VUZU3aXQ9M4Dni2xhn1o23WmVPUtr9wLC+rMkb1h9pVS06Ulj6mf3JflUcXQd/FtgInErqWzq6/bER9jQHoAKq05+AbcCRcilTzW4GWznnfWx/i053aqmD5/E+5VJVrwFGMNZH1ZX8c9WLfzfejMIc2XcCnX4veLxp/FOmzhp9y36kQwujSUfzTUBH1zeEzv40/+J14+w7BaRS6yjdZ8HVY5RSIu4EOtW7xjiv9kMpv2WwAbYCQ/vrgA1khrXNdoLCG9Y/AEzePQgM64+zjU2JAfqTU15HcvuQA6MOrqPbx3y/OHljRnPKNLadFoCqsh/l7HGcv9xMot7ONR6gU/59eXMWW+6pym4BNwKd3pDLkf90vdi20QzrD4A9wA/T7ACG9U+wjdXIAP3HQcNBTAfX0Qfg2UAnd9//2ceEx3bOiqO8mZq9aILaSdBvQOh2OurJCa5z3lO5hw1VRnkd38ZTjdtsRyh8CevLo7Zm6xs1rWorwfQZR2lHbfuK0MFL2L6O/eLkrR7NqcfYtgpyNnDWr4NJFc6ReAHcDWozyqdIObJfD0zgmb230Yw82mqK5F5wP3Aevxvo8MfYxpbBAP3E/mv0dznQyQegOLn7DhI6ulPCSfs6l+iG6VxXgTpGUB3SMPxuMJHRmIZeOroJvJvAAFwC2txwj1H+PcCw/l6wCI7g9Ib8sREZoG/oxDq5uAIUJ3dUVwB0cI9p8wBB8WdjCkCdptOObZV6DzjxOuAofz0wZLMx22rHKLhh/S5QHrU1W3+yrRWaVbmr/mD7FyffwH5xdJ2+OLkhe5sHBYo/X6tbAAzNRzIa2cYz+rgB+G23TiEc5esuE5eciZ3iLvuB4bxhvY5vtl4hiJ2FAfqAkafhutCxSwLO0dwosDh6W/sEVWi21U2sjbak0eAKxFbgVGEbsOEN19qq4ocpu2H9feAesAieSFgPC5XR5obijuTF0Tex78MxV4IS5enoDgixGTNQtwCspsFX4QCnrIf7bDYDQ3pD+2uA87S2NvYJyv4wKGG9zq/D+36vrRJ3ndyRfABKyO6+Iq+Ti7aKPUXvntUuAFC0jc5gIw8n8Az12tjwT1LuRXA/MKzfCfwmnKNse2e0qw6sgxdHL06+kfeKsHuMo36sBQzULQAq/aeBHaCto/wTlN2R/avgHrAXmK0/HdWw32mrxNvQXEcXG0CZm/taBy9O3kZRp/ixwkDdAuB1He3bZCcp7COghPUPsG+2vtNhPY5uvqaM5jq58/JNFUrIrohPo49w2VgTGOhj4z4J8Y+B3aCsyR9k/xhO7/86Yzi5kZjhutDJvx/o5FcCE7I6eBnN2Y31jYG+CIBz9gfBDuCavCN+Z8J6HF1ndjQfVHBurpP7WgfX0UVCdkiIPcWAAmAH6Zo5X3fuvgvo8G7N1h9n20rDyQ3LHckHQGcv83Id3XC+OHlfRJ0qxyZlwM5imNgFO0wldgPD+u1gEbQqrMfJbY/LQRnNh+flOr9tpaO7zWgOCbHJGGjzaGGSzmy9Yb1LdIb4RxnlTeo12nB0l8yKk29gvzwY474jfXH0ODlkxKbHQJsE4Elo2Ad2AR1exzdb38iwHid3pHbU1qkHoKyZb2JfAdDJC9iNhYHZM9B0AXBN3rD+PnA32A8aE9bj5I7QJuAGFTayLY7ueyVc19EzmkNCrFkMNE0ADN8fAo7uJu9ck597WI+j+2zDABi2Fyd362ju/8pI3jQ+KVosDCzNwLw7rGH9QbATGNZvBybzTsx6TR4n14lLlt2wfTgB55Nxjuby5XGxMNAJBuYlAIb27wf3gEfA8Vk4/FDIroMPwEZgyO52AFwSLU6ekB0yYt1mYF4C4Jdcvnta1A6F7APuUZx8U7Xvmrn1LmA3Fgb6ycC8BGDi0RUnNyQfVBgO2XV4Q3brZrg+rzpy61gYaDYD83IOE2fntSpk15kHFXRun4C7snpdHNx6TCwqXCMWBnrFgI5jSDxr84tD1jINOOKN2Xdd3FG8oCTgfK1YWM44OSTEwkCdDOhU8zAd/q+qEV4n93Vx8HmVaR485J5hYK4MzMvZvO+2udY8Nw8DYSDz5vSBMNBnBlb2ufKpexjoOwMRgL73gNS/1wxEAHrd/Kl83xmIAPS9B6T+vWYgAtDr5k/l+85ABKDvPSD17zUDEYBeN38q33cGFIB5PQzUd+5T/zAwdwYUAL+EMhYGwkAPGcgUoIeNniqHgcJABKAwkW0Y6CEDEYAeNnqqHAYKAxGAwkS2YaCHDEQAetjoqXIYKAxEAAoT2YaBHjIQAehho6fKYaAwEAEoTGQbBnrIQASgh42eKoeBwoACcLS8yDYMhIF+MaAA+Pt8sTAQBnrIQKYAPWz0VDkMFAYiAIWJbMNADxmIAPSw0VPlMFAYUABOlhfZhoEw0C8GFIDjNVbZhOJjwJWFJBdrJDaXCgPTYMBvAzpV44UVkxdU17yF7YvBtcAvHcl0AxJiYaBJDCgAx2oskCP/o/zqr6LyKPgAPwC6ga1i8HJwDfDXfiMGkBALA/NmQEc8UWMhDlfO/51L8no/+Ah4Hm/+CHgr2AH8afBMEyAhFgbmxYARwBM13txRf0lDBPbxz31EBb/PdhO4GRgZbAGJDCAhFgZmyYACcBA4EtcRlv/zKIVHCLyfYvEoYvBhtoqB04SXgYgBJMTCwCwYWIkzHuJG99ZwM3MJY19HMQDmDT7A+c8FPwbuAJkmQEIsDEyTgTLqf4ibTDofvwcnvn+Swg6JwQe5ThGDt7G/CyRnMAm5OTcMnIWBFb5HGK4Q/AV4ha+XYUYRt+LAe5Zx7nlPqcq3mQPLNMH95AzOy1wOCAPnZODO0wLgITjZOjZfAC7VjWNPcPBrcP7Pj3PSco8dEoObuYY5g6tAxGC5hOa8PjPwlADIAs51GZuPgW3ABOG5zCmDI/7bcf7t5zpwWv+jvJbxSmBk8BIQMYCEWBgYkYGnC4An4VRr2PwsMBF3BTjzp8N82u8A+ARwfd+5+dytEgOnBjeBRAZzb5EUoAUMPFMASqFxqAvZdzogvgc42v4HcC1/F45f5xOEXLI+q8TAaKBEBkYJmSbUR3Gu1A0GlhaAbtTvdESjcG0B5gycJkQMICEWBmCg+wIw3MxVZFDEwGnCJrB2+Jjsh4EeMdAvARhuWMRgNa+vBkYGfmqxRAbsxsJALxjorwAMN28lBuY6XghuAxuBOYNYGOgyAxGAM1sXMVjDe0YGRgUvAorBmSshvBULA61nIAJwriZEDMpKyK0cdwuIGJyLsPyvbQxEAEZtsYjBqEzluBYxEAFYTmNFDJbDWs5pIAP9FAAc2KU/s/8/Cvwg1L+BHWAfDzj5dWYj25AYmEA0Z7ABJIE4MoM5cI4M9E8AcNjLIfz3gNl+nb/Y4+z8MXjvch9vjhgUKrNtCQP9EgAc1Gz+H4FXLdFAfsDp4+Ctkz7qXN3L1QQTiCUyyGoCZMQaw0DvBODnof53gQ8BLWVOAd6EABgN1GKIgVOC8pxBWU1whSEWBubJQH8EACc09P8S2DwC4zs55oWTRgFnu08lBtfyP58zuAmYM4gYQEJs5gzcuWrmt5zfDV/KrX3cdxTbyEF+N8K+UQ4e5xhE5SjH+/0J2xEDk5FGBoqBSUnFwAeRYmFgJgz0QgAqR3sNjA4n/c5FsLyca5pwrnNH/h9icISDixhcwr6RgZ9YXAARA0iITZeBXggAFOpYjrSjmqO0mJkhBk9ws7sFgnUpW8tbxMCIZOqCxD1iPWOgLwLgj4+M40CLHH94Xn0BMXBJclgMtvJaMbgRGBmMUxcOj4WBszPQeQGoRtPrz179Jd/9Ek54csn/zvAflRj4haufpy7r2JZpQsRghu3Q1Vt1XgBouAEwhB7VDP3vGfXgWR6HGBiVFDEwSakY+MUmNwAjgz60J9WM1cVAHzqMI+U4y2yPcPzeugie1nUQg0Nc+3OCyKCIgVMdxWAA+tC2VDM2CQOd7iQ4hvV77pgEbce5ZpoAHLN8zzj8DDFYzwFGBorBdWAAOt3O1C+2TAa63jGcM28ag5sTHPvFMY5v3KGIwUEKJe5CABWDreCV1XbAdiWIhYHTDHRdAC6hlobHo9oBDtw36sFNP25IDP4aMbiC8ioGJTLwdcSg6Y045fJ1XQDs5ON8NNeR0yW4zhlioLiJzyAGA7ZODxQDRcFIIWIACX2zrgvAqI/+lnb3Z8obsfxXCjSNLXVc5LqLCMFfslUkixi4VQxiPWGg6wLw3WO243+OeXyrD0cInqQCi6ISgwH7PjNhZGAiMWIACV22rgvAuG3Xquz/uJU71/GVGOznmP2IwZ+zHYCIASR02SIAT2/d409/2c9XZxGDDTBxI/BxZCODy0GsAwx0XQBOjdlGl455fOcPr8RgHxXdR2TwcbaKgZGBTyBGDCChzdZ1Afj6mI3zfWMe37rDcWK/lsyvKjP7b/sfAPfj6Ib/5zSOUVD3Cq7zSbYDsACKGKxjP9YiBrouAItjtsWVdOw1dPQTY57XisOp2xYK+j5wAyiPR5sIPMj//Kq0D45a90oMzowMhqcJEQMIbbqtaHoBJylf1eH/gWuM+mWcftjmOXTuRye5bxPPhYvNlMunHNcvUT6F4IPgV6i/+8sy7uNHlZ0mbAPmDK4BmVpBQgPtzpUNLFSdRdKhD4xxQUethTGOb9Oh76WwSzm/9bAvvAVs88VyDfE4qYCCj3ANBeA54BfAduA3IMUaxICN3mVTAB4cs4JvZBTrVPhKfXzA5+YReHBK+KYRjhvpEETgBHikEgO/9/AnwB1AMejtkit1b4x1WgDoeIayXx6TbefJr8ZpusSNI7Ch+ShmgrB2oy2Og4fBB7h4EYO3sX8viBhAwjys0zkACcWRN7L5CjhX+Ouhw2bk8DN01nuG32zjfhXN/DtlH/UzEUeo93fNqq6U70LuZRsZofgjKuYMRi0rh8YmYKDzOQC52Q/GdWSnAL9D55zKaGihZmi3c69Rk6AWa9E/szLExsjgIfDb3FMBcJqQyGBGDdClMPeslNGxnAZ8Aoy7tLeZcz6FCCywbbO9jsKP086751XZs4iBCcRfBTvBsXmVq8P3PTZOx2gzD3bqcaMA6+unCf8MEXgLWOsbbbIqgjGkHtUUy0Z8IUolBg+yfTdl8peXjQzeCXaB4yA2OQOnOp8DKBzhDNvY/xuwnPnlSc57GPirwp+jUx5i23ijzn9AId8wRkFNxn0v9TsyxjkzPZQ62X7mDG4DThm2gDUgNj4Dv9QnAVgNPzrEz43P03fOOMXeIrgLfBrswVl8r3GGo2yiUP8ExhG8z1CfVzauMksUiDoalVlPnze4CUQMIGEM648ASAodxpHjs8DQflJzlNwDPgXuxnEOTHrBOs+nrh/jeq8d45qG/y+nHopb66wSA9tVMbgZXAUU/djSDPRLAOSBjmJWXOcYJzPuqUuZEYBTgh3AqGAnTvQ427kZdXQ0/FvgEtuotsiBz6bs4yZLR73+zI6rxMAkbokMIgZnZ7+XArAKLt4BTCjVPULoPAeBCUfzDbtxKOfVMzM6/yXc7KtABxjH3klZ3zXOCW04thIDBcBPLCqM8mIfiF1wQf8EwFanU5g0+k3wi2BancFM9SK4GzjteGDaYkC9HPHNc7wajLPCY1mfRfkeY9tJgxv5MGegAEQMvt3K/RQA606HcArwHvAGUHckwCWfZjrYQaAYfAEYGTzBtjajPtbh/eDNYBzntwx/Snle704fbEgMTBoqBtuA+YNpDQZcupHWXwGwOegIjpi/DHzYxP1ZmNMEcwb3Atfcd+F8B9gu26jHek5+H3gFGLcTm8P4IcrgMmfvrBIDp01OE/wy1JvAJjCuiHJK66zfAmBz0QF0mFcBpwRXgFmazvc4eAgYGewCfmBmpAddKLtRzEuB+Qw77XLsk9zvNcs5sWvnDInBNdStTBM2sN9VMYgA2ImrhteBnBLcBsYdRTllYnMZzsddjQ7uB/cBhWEfDnp6ukA5jVIuBYarW4Fr9u6vBsuxI5zk6L+4nJO7fE7VJ+RaMSiRgQNEl8QgAjDciWl0R9TbwR3A+eE8G7sIgqJwtCrLGrY6u8ks9ye1N+L8fzjpRbp+fiUG66inomtksAC6IAYRABryGUaDq/w/BfxyjM1gnkLA7adid3HVVyIATkNiIzJA3zA6tH90QQwiAOdqdxrbkfYGYKhtcuhy0AVbpBI/jvM/1oXKzKsOlRhcwv3tIyVncNm8yrOM+75+xTJO6t0pVUMbAm4DzgcXgOLQRjtEoW/F+fe0sfBNLfNQHylisEBZmy4Gr4sAjNmjaGjn4EYCLwI+ano9MHfQBjtCIV+M8+9sQ2HbWsYzxMDocQE4bWiaRQAmaREa2kTceqAY+D1314GmisEiZXsdzr+DbWxGDFQDhtGjU0inCTeCpkSPEQAaoxY7ixgYGbhs1wRzxNf59zehMH0tw1nEYAEuLp4jHxGAaZA/JAY/yfVLZFDHst24xXX58MPgvTi/+7GGMFCJgTmCW4BTSXMHsxaDCACkT9UqMXDN2GnCrWAWkcGT3OfvgE8I+r38vo41lIEhMbCPOE1QDGYRPUYAZtknKjEwgajqKwZ1q/4xrnkX8BOBfvrwBNtYixio+oiRgU+kuuLkgGHieRr201kFmAatI1yzUn3XkBfA84EJxE1gFRjHzOzvBv72wWfAARz/FNtYyxmoxMDo0amk0wT7yLj9g1OWtJdEAJbkZnb/oKFXcjdDPpX/WvCDYD1w6UiRGLbDvDgA/LGPR8Ee4I95nGQb6ygD9BH7x+3go6CuiCAC0NT+UomCan+m4p+Ksze11aZbLvqEEeLXQF1LzS85s3NNtwa5+sgM4OQm7hzVM7KPzFrnDzT6q3N6d8LQMxYGwkALGGBQMN9TpwCcjAC0oOFTxDAwLQYiANNiNtcNA9Nh4ESNl80UoEYyc6kwMAsGIgCzYDn3CAMNZaDOpzpPZQrQ0FZOscLAEgw8vsT7y3n7aARgObTlnDAwPwYO1XjrIxGAGtnMpcLADBjYW9M9TrCsmAigJjJzmTAwKwZ8ErCOZwEessCJAGbVbLlPGKiHge1cxgeCJrUPTXqBnB8GwsAcGOAzAe8H3wTLtX/kxHwMYA5tl1uGgYkZwHkvBf+yTO//Buf5EeNYGAgDbWUAJ94AHMnHsa9z8NVtrXPKHQbCwBADOPOF4NfA/4Dz2X0csGHo9NO7+UKQMxnJ6zDQMgZw7LUU2W8NGixR9Ad5/3PVR8yXOCRvh4EwEAbCQBgIA2EgDISBMBAGwkAYCANhIAyEgTAQBsJAGAgDYSAMhIEwEAbCQBgIA2EgDISBMBAGwkAYCANhIAyEgTAQBsJAGAgDYSAMhIEwEAbCQBgIA2EgDISBMBAGwkAYCANhIAyEgTAQBsJAGAgDYSAMhIEwEAbCQBgIA7Nk4P8BdgKjnCkZuFEAAAAASUVORK5CYII=;shadow=1;shadowColor=light-dark(#000000,#000000);shadowOpacity=50;shadowOffsetY=2;shadowBlur=1;" vertex="1" parent="1">
          <mxGeometry x="465" y="440" width="40" height="40" as="geometry" />
        </mxCell>
        <mxCell id="Jh3TjghR9VifW09uoMS7-8" value="" style="ellipse;whiteSpace=wrap;html=1;strokeColor=none;fillColor=light-dark(#CCCCCC,#CCCCCC);shadow=1;shadowColor=light-dark(#000000,#000000);shadowOpacity=50;shadowOffsetY=2;shadowBlur=1;" vertex="1" parent="1">
          <mxGeometry x="514.38" y="457.5" width="30" height="5" as="geometry" />
        </mxCell>
        <mxCell id="Jh3TjghR9VifW09uoMS7-9" value="" style="ellipse;whiteSpace=wrap;html=1;strokeColor=none;fillColor=light-dark(#CCCCCC,#CCCCCC);rotation=-15;shadow=1;shadowColor=light-dark(#000000,#000000);shadowOpacity=50;shadowOffsetY=2;shadowBlur=1;" vertex="1" parent="1">
          <mxGeometry x="510.09" y="445.65" width="25" height="5" as="geometry" />
        </mxCell>
        <mxCell id="Jh3TjghR9VifW09uoMS7-10" value="" style="ellipse;whiteSpace=wrap;html=1;strokeColor=none;fillColor=light-dark(#CCCCCC,#CCCCCC);rotation=15;shadow=1;shadowColor=light-dark(#000000,#000000);shadowOpacity=50;shadowOffsetY=2;shadowBlur=1;" vertex="1" parent="1">
          <mxGeometry x="510.09" y="468.35" width="25" height="5" as="geometry" />
        </mxCell>
      </root>
    </mxGraphModel>
  </diagram>
</mxfile>
